<?xml version="1.0" encoding="utf-8"?>
<!-- Generator: Adobe Illustrator 26.0.1, SVG Export Plug-In . SVG Version: 6.00 Build 0)  -->
<svg version="1.1" id="Layer_1" xmlns="http://www.w3.org/2000/svg" xmlns:xlink="http://www.w3.org/1999/xlink" x="0px" y="0px"
	 viewBox="0 0 773 169" style="enable-background:new 0 0 773 169;" xml:space="preserve">
<style type="text/css">
	.st0{clip-path:url(#SVGID_00000056408962582392950370000011620749141083587997_);fill:#E1392C;}
	.st1{clip-path:url(#SVGID_00000136380381195204035760000016506682756652521857_);fill:#E1392C;}
	.st2{fill:#121111;}
	.st3{fill:#E1392C;}
</style>
<g>
	<defs>
		<path id="SVGID_1_" d="M81.89,66.52v5.01c0,0.77-0.84,0.94-0.84,0.94h-5.91v33.83h9.27c6.68,0,11.81-1.69,15.4-5.05
			c3.59-3.37,5.38-8.27,5.38-14.7c0-6.43-1.79-11.37-5.38-14.84c-3.59-3.46-9.1-5.2-16.52-5.2H81.89z"/>
	</defs>
	<clipPath id="SVGID_00000090981073574477974790000001959737848391899041_">
		<use xlink:href="#SVGID_1_"  style="overflow:visible;"/>
	</clipPath>
	
		<rect x="75.14" y="66.52" style="clip-path:url(#SVGID_00000090981073574477974790000001959737848391899041_);fill:#E1392C;" width="30.05" height="39.79"/>
</g>
<g>
	<defs>
		<path id="SVGID_00000002378178102164982430000001296827548780174224_" d="M60.54,61.15h7.08c0,0,0.89-0.11,0.89-1v-6.37h15.15
			c11.67,0,20.63,2.85,26.87,8.57c6.24,5.71,9.36,13.65,9.36,23.82c0,10.17-3.04,18.22-9.13,24.15c-6.08,5.93-15.37,8.89-27.85,8.89
			H60.54V61.15z M51.72,42c-1.89,0-3.43,1.54-3.43,3.43v82.14c0,1.89,1.54,3.43,3.43,3.43h64.97c1.89,0,3.76-0.66,5.15-3.43
			l13.65-38.49c0,0,1.21-3.34-0.08-5.91c-0.32-0.81-13.57-37.74-13.57-37.74c-0.93-2.92-3.94-3.43-5.83-3.43H51.72z"/>
	</defs>
	<clipPath id="SVGID_00000062874360447518836100000003437193818845137578_">
		<use xlink:href="#SVGID_00000002378178102164982430000001296827548780174224_"  style="overflow:visible;"/>
	</clipPath>
	
		<rect x="48.29" y="42" style="clip-path:url(#SVGID_00000062874360447518836100000003437193818845137578_);fill:#E1392C;" width="88.41" height="89"/>
</g>
<g>
	<path class="st2" d="M165.42,47.36c11.2,0,19.31,7.84,19.31,18.67c0,10.78-8.16,18.67-19.47,18.67h-15.15V47.36H165.42z
		 M156.41,79.05h9.18c7.25,0,12.8-5.39,12.8-12.96c0-7.63-5.71-13.07-13.07-13.07h-8.91V79.05z"/>
	<path class="st2" d="M196.74,76.27l-3.57,8.43h-6.56l16.48-37.34h6.45l16.32,37.34h-6.72l-3.57-8.43H196.74z M206.13,54.08
		l-7.04,16.59h14.08L206.13,54.08z"/>
	<path class="st2" d="M242.29,53.02V84.7H236V53.02h-11.79v-5.65h29.93v5.65H242.29z"/>
</g>
<g>
	<path class="st2" d="M264.47,76.27l-3.57,8.43h-6.56l16.48-37.34h6.45L293.6,84.7h-6.72l-3.57-8.43H264.47z M273.86,54.08
		l-7.04,16.59h14.08L273.86,54.08z"/>
	<path class="st2" d="M329.29,52.96l-3.68,4.59c-2.72-2.93-6.61-4.75-10.4-4.75c-7.47,0-13.34,5.76-13.34,13.12
		s5.87,13.18,13.34,13.18c3.73,0,7.57-1.71,10.4-4.43l3.73,4.16c-3.79,3.73-9.18,6.13-14.46,6.13c-10.94,0-19.42-8.27-19.42-18.99
		c0-10.62,8.59-18.78,19.63-18.78C320.38,47.2,325.66,49.39,329.29,52.96z"/>
	<path class="st2" d="M362.73,84.7V69.23h-19.79V84.7h-6.29V47.36h6.29v16.22h19.79V47.36h6.29V84.7H362.73z"/>
	<path class="st2" d="M380.28,84.7V47.36h6.29V84.7H380.28z"/>
	<path class="st2" d="M404.07,53.02V63.1h18.24v5.65h-18.24v10.3h21.02v5.65h-27.31V47.36h26.67v5.65H404.07z"/>
	<path class="st2" d="M445.47,84.7l-14.88-37.34h6.77l11.52,30.35l11.63-30.35h6.56l-15.1,37.34H445.47z"/>
</g>
<g>
	<path class="st2" d="M482.76,53.02V63.1h18.24v5.65h-18.24v10.3h21.02v5.65h-27.31V47.36h26.67v5.65H482.76z"/>
</g>
<g>
	<path class="st3" d="M534.67,47.36c11.2,0,19.31,7.84,19.31,18.67c0,10.78-8.16,18.67-19.47,18.67h-15.15V47.36H534.67z
		 M525.65,79.05h9.18c7.25,0,12.8-5.39,12.8-12.96c0-7.63-5.71-13.07-13.07-13.07h-8.91V79.05z"/>
	<path class="st3" d="M562.3,84.7V47.36h6.29V84.7H562.3z"/>
	<path class="st3" d="M611.11,66.35v13.76c-3.79,2.88-9.39,4.85-14.51,4.85c-11.04,0-19.63-8.27-19.63-18.94s8.7-18.83,20-18.83
		c5.33,0,10.67,2.03,14.35,5.23l-3.57,4.64c-2.88-2.67-6.88-4.27-10.78-4.27c-7.63,0-13.6,5.81-13.6,13.23
		c0,7.47,6.03,13.28,13.66,13.28c2.77,0,5.92-0.96,8.59-2.56v-10.4H611.11z"/>
	<path class="st3" d="M621.99,84.7V47.36h6.29V84.7H621.99z"/>
	<path class="st3" d="M652.66,53.02V84.7h-6.29V53.02h-11.79v-5.65h29.93v5.65H652.66z"/>
	<path class="st3" d="M672.99,76.27l-3.57,8.43h-6.56l16.48-37.34h6.45l16.32,37.34h-6.72l-3.57-8.43H672.99z M682.38,54.08
		l-7.04,16.59h14.08L682.38,54.08z"/>
	<path class="st3" d="M731.35,78.99v5.71h-22.46V47.36h6.29v31.63H731.35z"/>
</g>
<g>
	<path class="st2" d="M150.26,126.65V105.3h3.6v21.35H150.26z"/>
	<path class="st2" d="M175.89,126.65l-11.38-15.31v15.31h-3.6V105.3h3.54l11.44,15.34V105.3h3.54v21.35H175.89z"/>
	<path class="st2" d="M194.04,108.54v18.12h-3.6v-18.12h-6.74v-3.23h17.11v3.23H194.04z"/>
	<path class="st2" d="M208.66,108.54v5.76h10.43v3.23h-10.43v5.89h12.02v3.23h-15.62V105.3h15.25v3.23H208.66z"/>
	<path class="st2" d="M236.33,120.19c-0.3,0.03-0.64,0.03-0.98,0.03h-5.06v6.44h-3.6V105.3h8.66c5.46,0,8.6,2.65,8.6,7.29
		c0,3.42-1.59,5.83-4.42,6.92l4.79,7.14h-4.09L236.33,120.19z M235.35,116.99c3.29,0,5.19-1.4,5.19-4.3c0-2.81-1.89-4.15-5.19-4.15
		h-5.06v8.45H235.35z"/>
	<path class="st2" d="M254.3,121.83l-2.04,4.82h-3.75l9.43-21.35h3.69l9.33,21.35h-3.84l-2.04-4.82H254.3z M259.67,109.15
		l-4.03,9.49h8.05L259.67,109.15z"/>
	<path class="st2" d="M292.03,108.51l-2.1,2.62c-1.56-1.68-3.78-2.71-5.95-2.71c-4.27,0-7.63,3.29-7.63,7.5
		c0,4.21,3.36,7.53,7.63,7.53c2.14,0,4.33-0.98,5.95-2.53l2.14,2.38c-2.17,2.14-5.25,3.51-8.27,3.51c-6.25,0-11.1-4.73-11.1-10.86
		c0-6.07,4.91-10.74,11.22-10.74C286.94,105.21,289.96,106.46,292.03,108.51z"/>
	<path class="st2" d="M305.64,108.54v18.12h-3.6v-18.12h-6.74v-3.23h17.11v3.23H305.64z"/>
	<path class="st2" d="M316.66,126.65V105.3h3.6v21.35H316.66z"/>
	<path class="st2" d="M333.25,126.65l-8.51-21.35h3.87l6.59,17.36l6.65-17.36h3.75l-8.63,21.35H333.25z"/>
	<path class="st2" d="M353.69,108.54v5.76h10.43v3.23h-10.43v5.89h12.02v3.23h-15.62V105.3h15.25v3.23H353.69z"/>
	<path class="st2" d="M400.58,126.65l-0.03-15.95l-6.74,13.73h-2.35l-6.74-13.73v15.95h-3.39V105.3h4.27l7.05,14.18l7.01-14.18h4.24
		v21.35H400.58z"/>
	<path class="st2" d="M414.62,108.54v5.76h10.43v3.23h-10.43v5.89h12.02v3.23h-15.62V105.3h15.25v3.23H414.62z"/>
	<path class="st2" d="M441.41,105.3c6.41,0,11.04,4.48,11.04,10.68c0,6.16-4.67,10.68-11.13,10.68h-8.66V105.3H441.41z
		 M436.25,123.42h5.25c4.15,0,7.32-3.08,7.32-7.41c0-4.36-3.26-7.47-7.47-7.47h-5.09V123.42z"/>
	<path class="st2" d="M457.82,126.65V105.3h3.6v21.35H457.82z"/>
	<path class="st2" d="M471.7,121.83l-2.04,4.82h-3.75l9.43-21.35h3.69l9.33,21.35h-3.84l-2.04-4.82H471.7z M477.07,109.15
		l-4.03,9.49h8.05L477.07,109.15z"/>
	<path class="st2" d="M514.5,123.97c-1.89,1.8-4.09,2.84-6.44,2.84c-3.81,0-6.71-2.53-6.71-5.98c0-3.02,2.2-4.64,4.61-5.92
		c-1.4-1.89-2.04-3.42-2.04-4.94c0-2.84,2.23-4.82,5.55-4.82c3.2,0,5.4,1.86,5.4,4.48c0,2.93-2.56,4.45-5.19,5.83
		c1.16,1.31,2.65,2.84,4.48,4.64c0.73-1.1,1.37-2.38,1.92-3.84l2.29,1.71c-0.64,1.53-1.37,2.9-2.23,4.06l3.48,3.39l-1.8,1.83
		L514.5,123.97z M512.58,122.08c-2.14-2.14-3.84-3.87-5.19-5.4c-1.77,1.01-3.14,2.14-3.14,3.87c0,2.14,1.74,3.6,3.93,3.6
		C509.75,124.15,511.24,123.39,512.58,122.08z M508.28,113.72c2.07-1.07,3.81-2.17,3.81-4.06c0-1.4-1.01-2.32-2.59-2.32
		c-1.71,0-2.81,1.13-2.81,2.59C506.69,111.07,507.21,112.26,508.28,113.72z"/>
	<path class="st2" d="M553.13,126.65l-0.03-15.95l-6.74,13.73h-2.35l-6.74-13.73v15.95h-3.39V105.3h4.27l7.05,14.18l7.01-14.18h4.24
		v21.35H553.13z"/>
	<path class="st2" d="M566.8,121.83l-2.04,4.82H561l9.43-21.35h3.69l9.33,21.35h-3.84l-2.04-4.82H566.8z M572.17,109.15l-4.03,9.49
		h8.05L572.17,109.15z"/>
	<path class="st2" d="M597.61,120.19c-0.31,0.03-0.64,0.03-0.98,0.03h-5.06v6.44h-3.6V105.3h8.66c5.46,0,8.6,2.65,8.6,7.29
		c0,3.42-1.59,5.83-4.42,6.92l4.79,7.14h-4.09L597.61,120.19z M596.63,116.99c3.29,0,5.19-1.4,5.19-4.3c0-2.81-1.89-4.15-5.19-4.15
		h-5.06v8.45H596.63z"/>
	<path class="st2" d="M618.63,117.23l-3.63,4v5.43h-3.6V105.3h3.6v11.04l10.19-11.04h4.24l-8.27,9.12l8.81,12.23h-4.33
		L618.63,117.23z"/>
	<path class="st2" d="M638.31,108.54v5.76h10.43v3.23h-10.43v5.89h12.02v3.23h-15.62V105.3h15.25v3.23H638.31z"/>
	<path class="st2" d="M664.18,108.54v18.12h-3.6v-18.12h-6.74v-3.23h17.11v3.23H664.18z"/>
	<path class="st2" d="M675.2,126.65V105.3h3.6v21.35H675.2z"/>
	<path class="st2" d="M700.82,126.65l-11.38-15.31v15.31h-3.6V105.3h3.54l11.44,15.34V105.3h3.54v21.35H700.82z"/>
	<path class="st2" d="M729.28,116.16v7.87c-2.17,1.65-5.37,2.78-8.3,2.78c-6.31,0-11.22-4.73-11.22-10.83s4.97-10.77,11.44-10.77
		c3.05,0,6.1,1.16,8.21,2.99l-2.04,2.65c-1.65-1.53-3.93-2.44-6.16-2.44c-4.36,0-7.78,3.32-7.78,7.56c0,4.27,3.45,7.59,7.81,7.59
		c1.59,0,3.39-0.55,4.91-1.46v-5.95H729.28z"/>
</g>
</svg>
